<svg id="Layer_1" data-name="Layer 1" xmlns="http://www.w3.org/2000/svg" viewBox="0 0 496.8 158.1"><defs><style>.cls-1{fill:#231f20;}.cls-2{fill:#5e5e5e;}.cls-3{fill:#fec845;}.cls-4{fill:#dc6568;}.cls-5{fill:#61c4b9;}.cls-6{fill:#fff;}</style></defs><title>Artboard 1</title><path class="cls-1" d="M233,88.63a27.53,27.53,0,0,1-3.14,8.14,22.54,22.54,0,0,1-5.42,6.24,24.36,24.36,0,0,1-7.58,4,30.4,30.4,0,0,1-9.5,1.42,33.34,33.34,0,0,1-10.9-1.74,23.81,23.81,0,0,1-8.74-5.22,24.51,24.51,0,0,1-5.78-8.57A31.1,31.1,0,0,1,179.83,81a35,35,0,0,1,1.93-12,24.85,24.85,0,0,1,5.51-9A24.17,24.17,0,0,1,196,54.4a31.86,31.86,0,0,1,11.52-2,32.85,32.85,0,0,1,10.08,1.46,24.82,24.82,0,0,1,7.8,4A19.81,19.81,0,0,1,233,71.39H220.54a12.25,12.25,0,0,0-4.84-7,13.86,13.86,0,0,0-8.07-2.49q-7.8,0-11.48,4.94t-3.67,13.56q0,8.78,3.63,13.63T207,98.9a14,14,0,0,0,8.92-2.65,13.54,13.54,0,0,0,4.62-7.62Z"/><path class="cls-1" d="M270.11,108.47q-13.8,0-21.2-7.12t-7.4-20.47a35.4,35.4,0,0,1,1.89-11.94A23.63,23.63,0,0,1,249,60a24.26,24.26,0,0,1,9-5.61,39.14,39.14,0,0,1,24.34,0A23.07,23.07,0,0,1,291.18,60a24.79,24.79,0,0,1,5.47,9.05,36.26,36.26,0,0,1,1.88,12.06q0,13.59-7.3,20.47T270.11,108.47Zm0-9.41A18.17,18.17,0,0,0,276.39,98a13.91,13.91,0,0,0,5.15-3.24A15,15,0,0,0,285,89.18a23.41,23.41,0,0,0,1.25-8.06q0-9.33-4.12-14.15t-12-4.82q-7.89,0-12.1,4.82T253.8,81.12c0,6.22,1.41,10.76,4.26,13.63S264.91,99.06,270.11,99.06Z"/><path class="cls-1" d="M309.11,106.65V54.16h29.32q8.77,0,13.36,3.84a13,13,0,0,1,4.57,10.47,9.61,9.61,0,0,1-2.06,6,11.26,11.26,0,0,1-5.2,3.75,18.32,18.32,0,0,1,3.54,1.62,10.48,10.48,0,0,1,2.87,2.53,12.46,12.46,0,0,1,1.92,3.64,15.23,15.23,0,0,1,.72,4.94,13.68,13.68,0,0,1-5.47,11.42q-5.46,4.23-16.76,4.23Zm12-43.4V74.64h15.69q7.53,0,7.54-5.7a4.92,4.92,0,0,0-1.93-4.34c-1.29-.9-3.39-1.35-6.32-1.35ZM336.9,97.72a9.81,9.81,0,0,0,6.73-2.14,6.86,6.86,0,0,0,2.42-5.37,5.62,5.62,0,0,0-2.38-5.06,11.83,11.83,0,0,0-6.59-1.58h-16V97.72Z"/><path class="cls-1" d="M402.08,106.65V93.13q0-3.8-2-5.41t-7.35-1.62H379.49v20.55h-12.1V54.16H397.6a22.89,22.89,0,0,1,7.48,1.15,18,18,0,0,1,5.79,3.16,13.75,13.75,0,0,1,3.72,4.82,14.32,14.32,0,0,1,1.3,6.05,12.86,12.86,0,0,1-2.29,7.55A12.07,12.07,0,0,1,407,81.51a10,10,0,0,1,5.61,3.4q1.65,2.3,1.65,6.88v14.86Zm-22.59-43.4v14h15.6c3.35,0,5.7-.65,7.08-2a6.59,6.59,0,0,0,2.06-5,6.79,6.79,0,0,0-2-5.06q-2-2-6.68-2Z"/><path class="cls-1" d="M467.26,106.65l-3.77-10.83h-22l-4.21,10.83H424.14l21.24-52.49h14.44l21,52.49ZM452.47,65.94h-.09l-7.62,20.87h15.15Z"/><path class="cls-2" d="M192.7,138.61a12.11,12.11,0,0,1-5,.89c-5.29,0-9.28-3.34-9.28-9.5,0-5.88,4-9.87,9.81-9.87a10,10,0,0,1,4.46.84l-.59,2a8.71,8.71,0,0,0-3.79-.78c-4.4,0-7.33,2.81-7.33,7.74,0,4.6,2.65,7.56,7.22,7.56a9.75,9.75,0,0,0,4-.78Z"/><path class="cls-2" d="M208.67,132.37c0,5-3.45,7.16-6.71,7.16-3.66,0-6.47-2.68-6.47-6.94,0-4.52,3-7.16,6.69-7.16S208.67,128.24,208.67,132.37Zm-10.7.13c0,3,1.7,5.19,4.1,5.19s4.09-2.2,4.09-5.24c0-2.28-1.14-5.18-4-5.18S198,129.94,198,132.5Z"/><path class="cls-2" d="M219,130.78v1.81H212.1v-1.81Z"/><path class="cls-2" d="M223.05,120.69a23.74,23.74,0,0,1,4.43-.39c2.43,0,4,.42,5.16,1.37A3.94,3.94,0,0,1,234.2,125a4.47,4.47,0,0,1-3.18,4.13v0a4.84,4.84,0,0,1,3.88,4.71,5,5,0,0,1-1.59,3.76c-1.31,1.2-3.43,1.76-6.49,1.76a28.78,28.78,0,0,1-3.77-.22Zm2.43,7.69h2.2c2.56,0,4.07-1.34,4.07-3.15,0-2.2-1.68-3.06-4.13-3.06a10.82,10.82,0,0,0-2.14.16Zm0,9a12.19,12.19,0,0,0,2,.11c2.51,0,4.82-.92,4.82-3.65,0-2.56-2.2-3.62-4.85-3.62h-2Z"/><path class="cls-2" d="M239.19,129.94c0-1.59,0-3-.11-4.21h2.14l.09,2.65h.11a4,4,0,0,1,3.73-2.95,2.5,2.5,0,0,1,.7.08v2.31a4,4,0,0,0-.83-.08,3.44,3.44,0,0,0-3.29,3.15,6.39,6.39,0,0,0-.11,1.14v7.19h-2.43Z"/><path class="cls-2" d="M256.75,139.22l-.2-1.7h-.08a5,5,0,0,1-4.13,2,3.84,3.84,0,0,1-4.12-3.88c0-3.26,2.9-5,8.11-5v-.28a2.78,2.78,0,0,0-3.07-3.12,6.76,6.76,0,0,0-3.51,1l-.55-1.61a8.31,8.31,0,0,1,4.43-1.2c4.12,0,5.13,2.81,5.13,5.52v5a18.7,18.7,0,0,0,.22,3.23Zm-.36-6.88c-2.68-.06-5.72.42-5.72,3a2.18,2.18,0,0,0,2.32,2.34,3.37,3.37,0,0,0,3.26-2.26,2.67,2.67,0,0,0,.14-.78Z"/><path class="cls-2" d="M263.83,129.38c0-1.39,0-2.53-.11-3.65h2.17L266,128h.06a5,5,0,0,1,4.45-2.53c1.87,0,4.77,1.11,4.77,5.74v8.05h-2.45v-7.77c0-2.18-.81-4-3.12-4a3.48,3.48,0,0,0-3.29,2.51,3.55,3.55,0,0,0-.17,1.14v8.11h-2.45Z"/><path class="cls-2" d="M292.06,119.44v16.3c0,1.2,0,2.56.11,3.48H290l-.11-2.34h-.06a5,5,0,0,1-4.6,2.65c-3.26,0-5.77-2.76-5.77-6.86,0-4.48,2.76-7.24,6.05-7.24a4.49,4.49,0,0,1,4.07,2.06h.06v-8Zm-2.45,11.78a4.08,4.08,0,0,0-.12-1,3.6,3.6,0,0,0-3.53-2.84c-2.54,0-4,2.23-4,5.21,0,2.73,1.33,5,4,5a3.67,3.67,0,0,0,3.59-2.93,3.88,3.88,0,0,0,.12-1.05Z"/><path class="cls-2" d="M298.61,132.92c.06,3.32,2.17,4.69,4.62,4.69a8.88,8.88,0,0,0,3.74-.7l.42,1.75a10.94,10.94,0,0,1-4.49.84c-4.15,0-6.63-2.73-6.63-6.8s2.4-7.27,6.33-7.27c4.4,0,5.57,3.87,5.57,6.35a8.57,8.57,0,0,1-.09,1.14Zm7.19-1.75c0-1.56-.64-4-3.4-4-2.48,0-3.57,2.29-3.76,4Z"/><path class="cls-2" d="M324,119.44v16.3c0,1.2,0,2.56.11,3.48h-2.2l-.11-2.34h-.06a5,5,0,0,1-4.59,2.65c-3.26,0-5.77-2.76-5.77-6.86,0-4.48,2.76-7.24,6-7.24a4.49,4.49,0,0,1,4.06,2.06h.06v-8Zm-2.45,11.78a4.57,4.57,0,0,0-.11-1,3.6,3.6,0,0,0-3.54-2.84c-2.54,0-4,2.23-4,5.21,0,2.73,1.34,5,4,5a3.69,3.69,0,0,0,3.6-2.93,4.34,4.34,0,0,0,.11-1.05Z"/><path class="cls-2" d="M336.26,139.22V120.44h2.65l6,9.5a53.47,53.47,0,0,1,3.37,6.1l.06,0c-.23-2.51-.28-4.8-.28-7.72v-7.86h2.28v18.78h-2.45l-6-9.53a58.65,58.65,0,0,1-3.51-6.27l-.09,0c.14,2.37.2,4.62.2,7.74v8Z"/><path class="cls-2" d="M357,132.92c.05,3.32,2.17,4.69,4.62,4.69a8.88,8.88,0,0,0,3.74-.7l.42,1.75a10.94,10.94,0,0,1-4.49.84c-4.15,0-6.63-2.73-6.63-6.8s2.39-7.27,6.32-7.27c4.41,0,5.58,3.87,5.58,6.35a8.57,8.57,0,0,1-.09,1.14Zm7.19-1.75c0-1.56-.64-4-3.4-4-2.48,0-3.57,2.29-3.76,4Z"/><path class="cls-2" d="M371.68,125.73l1.79,6.86c.39,1.5.75,2.9,1,4.29h.09c.3-1.36.75-2.81,1.19-4.26l2.21-6.89H380l2.09,6.75c.5,1.61.89,3,1.2,4.4h.08a39.36,39.36,0,0,1,1-4.38l1.92-6.77h2.43l-4.35,13.49h-2.23l-2.06-6.44a41.75,41.75,0,0,1-1.2-4.43h-.05a41.86,41.86,0,0,1-1.23,4.46l-2.18,6.41h-2.22l-4.07-13.49Z"/><path class="cls-2" d="M391.84,136.71a6.33,6.33,0,0,0,3.23,1c1.78,0,2.62-.89,2.62-2s-.7-1.81-2.51-2.48c-2.42-.86-3.57-2.2-3.57-3.82,0-2.17,1.76-3.95,4.66-3.95a6.78,6.78,0,0,1,3.31.83l-.61,1.79a5.22,5.22,0,0,0-2.76-.78c-1.45,0-2.26.83-2.26,1.84s.81,1.61,2.57,2.28c2.34.89,3.54,2.06,3.54,4.07,0,2.37-1.84,4-5.05,4a7.69,7.69,0,0,1-3.79-.92Z"/><path class="cls-2" d="M404.32,119.44h2.45v19.78h-2.45Z"/><path class="cls-2" d="M413.38,132.92c.05,3.32,2.17,4.69,4.62,4.69a8.88,8.88,0,0,0,3.74-.7l.42,1.75a10.94,10.94,0,0,1-4.49.84c-4.15,0-6.63-2.73-6.63-6.8s2.39-7.27,6.32-7.27c4.41,0,5.58,3.87,5.58,6.35a8.57,8.57,0,0,1-.09,1.14Zm7.19-1.75c0-1.56-.64-4-3.4-4-2.48,0-3.57,2.29-3.76,4Z"/><path class="cls-2" d="M430.05,121.86v3.87h3.51v1.87h-3.51v7.28c0,1.67.47,2.61,1.84,2.61a5.7,5.7,0,0,0,1.42-.16l.11,1.84a6.19,6.19,0,0,1-2.18.33,3.37,3.37,0,0,1-2.64-1,5,5,0,0,1-1-3.51V127.6h-2.09v-1.87h2.09V122.5Z"/><path class="cls-2" d="M440.38,121.86v3.87h3.52v1.87h-3.52v7.28c0,1.67.48,2.61,1.84,2.61a5.73,5.73,0,0,0,1.43-.16l.11,1.84a6.19,6.19,0,0,1-2.18.33,3.37,3.37,0,0,1-2.64-1A5,5,0,0,1,438,135V127.6H435.9v-1.87H438V122.5Z"/><path class="cls-2" d="M449,132.92c.06,3.32,2.17,4.69,4.63,4.69a8.86,8.86,0,0,0,3.73-.7l.42,1.75a10.94,10.94,0,0,1-4.49.84c-4.15,0-6.63-2.73-6.63-6.8s2.4-7.27,6.32-7.27c4.41,0,5.58,3.87,5.58,6.35a8.57,8.57,0,0,1-.09,1.14Zm7.19-1.75c0-1.56-.64-4-3.4-4-2.48,0-3.57,2.29-3.76,4Z"/><path class="cls-2" d="M462.68,129.94c0-1.59,0-3-.11-4.21h2.14l.09,2.65h.11a4,4,0,0,1,3.73-2.95,2.5,2.5,0,0,1,.7.08v2.31a4,4,0,0,0-.83-.08,3.44,3.44,0,0,0-3.29,3.15,6.33,6.33,0,0,0-.12,1.14v7.19h-2.42Z"/><path class="cls-2" d="M472.58,136.71a6.33,6.33,0,0,0,3.23,1c1.78,0,2.62-.89,2.62-2s-.7-1.81-2.51-2.48c-2.42-.86-3.57-2.2-3.57-3.82,0-2.17,1.76-3.95,4.66-3.95a6.78,6.78,0,0,1,3.31.83l-.61,1.79a5.22,5.22,0,0,0-2.76-.78c-1.45,0-2.26.83-2.26,1.84s.81,1.61,2.57,2.28c2.34.89,3.54,2.06,3.54,4.07,0,2.37-1.84,4-5.05,4a7.69,7.69,0,0,1-3.79-.92Z"/><path class="cls-3" d="M139.72,18.57l-35.67,5.71-7.79,1.08L102,38.79C-41.18,106.11,31.79,121,57.75,121.11v8.33h6.42v10.09H81.25V93.83L64.17,102.3v7.33H57.75v8.14C-35,111.74,87.69,56.28,106,48.25l6.39,15,6.16-4.87L147.4,36.59Z"/><polygon class="cls-4" points="89.88 89.35 89.88 139.53 107.04 139.53 107.04 80.83 89.88 89.35"/><polygon class="cls-5" points="115.62 67 115.62 139.53 132.78 139.53 132.78 57.68 115.62 67"/><polygon class="cls-2" points="141.35 53.02 141.35 139.53 158.51 139.53 158.51 43.71 141.35 53.02"/><polygon class="cls-6" points="75.32 114.75 75.32 117.04 70.47 117.04 70.47 122.02 75.32 122.02 75.32 124.31 70.47 124.31 70.47 128.05 64.17 128.05 64.17 128.06 59.13 128.06 59.13 111 64.17 111 64.17 111.01 70.47 111.01 70.47 114.75 75.32 114.75"/><path class="cls-6" d="M128.29,34.09l-26-4.24,11,25.93Z"/><path class="cls-6" d="M132,32.49l10.22,1.67L137.9,24Z"/><path class="cls-6" d="M135.91,23l-31.28,5,25,4.09Z"/><path class="cls-4" d="M124.72,26.6s-2.15.55-.09,1.08,1.93.55,3.18.24,2-.68,1-1.13S127.37,25.68,124.72,26.6Z"/><path class="cls-6" d="M141.56,36.25l-25.28,19.1,14.38-20.87Z"/><path class="cls-4" d="M131.22,41.84s-1.89,1.18-.85-.68.95-1.77,2-2.46,1.87-1,1.47.09S133.72,40.57,131.22,41.84Z"/></svg>