<svg id="Layer_1" data-name="Layer 1" xmlns="http://www.w3.org/2000/svg" viewBox="0 0 400.3 117.03"><defs><style>.cls-1{fill:#a71e22;}.cls-2{font-size:32px;fill:#6b6b6b;font-family:ArialMT, Arial;}</style></defs><title>poweredbyarcamax</title><path class="cls-1" d="M27.14,119.58q4.55-.27,5.61-1c.48-.36,1.24-1.73,2.26-4.11q3-7,7.54-19.53L59.64,48h7.1l21.82,58.1c2.83,7.34,4.58,11.35,5.24,12.06s2.7,1.17,6.11,1.42v4.92Q92,124.13,85,124.12q-8.34,0-15.88.38v-4.92q5.75-.27,6.64-.72a1.63,1.63,0,0,0,.89-1.61q0-1-2-6.87l-3.19-9q-6-.16-13.39-.17-6.44,0-11.7.17l-2.12,6.07c-.58,1.66-1.29,4.12-2.13,7.4a8.18,8.18,0,0,0-.29,2,1.81,1.81,0,0,0,.94,1.72c.63.33,2.89.68,6.79,1v4.92q-4.74-.37-11.77-.38c-4.48,0-8,.13-10.67.38Zm31.68-52.5L48.63,94.91c3,.17,6.23.27,9.81.27,3.74,0,7.31-.1,10.72-.27Z" transform="translate(-21.33 -9.21)"/><path class="cls-1" d="M100.75,124.5v-4.44c3.25-.17,5.11-.39,5.6-.64a2.31,2.31,0,0,0,.91-1,19.83,19.83,0,0,0,.63-5.75q.19-7.9.2-14.41,0-12.51-.29-14.84a2.68,2.68,0,0,0-.87-1.92q-.74-.59-6.18-.79V76.51q9.72-1,13.92-2.57l5-2.08c.44,0,.67.34.67,1l0,.75c-.1,2.28-.15,5.54-.15,9.8a77.14,77.14,0,0,0,5.45-6.71,14.1,14.1,0,0,1,3.86-4,9.05,9.05,0,0,1,4.4-.92,8.86,8.86,0,0,1,3.14.6q-.44,5.42-.58,14.72l-2.17.87a7.51,7.51,0,0,0-2.44-3,6.39,6.39,0,0,0-3.45-.84,7.67,7.67,0,0,0-5,1.68,7.42,7.42,0,0,0-2.65,3.85q-.39,1.64-.39,11.07,0,13.74.34,16a3,3,0,0,0,.91,2.07c.74.54,3.18.92,7.3,1.13v4.44l-5.41-.16q-5.16-.16-8.93-.16-3.57,0-8.31.16Z" transform="translate(-21.33 -9.21)"/><path class="cls-1" d="M174.93,91.34h-4c-.23-4.29-.5-6.77-.82-7.42a6.2,6.2,0,0,0-2.84-2.76,11.11,11.11,0,0,0-5.54-1.24c-3.42,0-5.91,1.1-7.48,3.28s-2.35,6.13-2.35,11.8c0,7.21,1.47,12.76,4.4,16.69a13.5,13.5,0,0,0,11.3,5.89,20.72,20.72,0,0,0,4.62-.49,15.71,15.71,0,0,0,3.83-1.42l.81,1.2c-.7,1.72-1.35,3.47-2,5.22a28.11,28.11,0,0,1-6.49,2.66,25.84,25.84,0,0,1-6.69.89q-10.53,0-16.4-6.53t-5.87-18.55a38.78,38.78,0,0,1,.77-8,24.31,24.31,0,0,1,2.1-6.12,16.72,16.72,0,0,1,2.92-4.09c.65-.58,3.41-2.58,8.31-6a31.63,31.63,0,0,1,6.25-3.74,15.86,15.86,0,0,1,5.24-.7,31.92,31.92,0,0,1,5.65.49,29.32,29.32,0,0,1,5.36,1.46l.81,1A107.08,107.08,0,0,0,174.93,91.34Z" transform="translate(-21.33 -9.21)"/><path class="cls-1" d="M226.8,120.06v4.44l-3.73-.16c-2-.11-3.93-.16-5.9-.16-3,0-5.91.1-8.62.32l-.48-.59.48-7.42-10.07,8.45a19.62,19.62,0,0,1-4.77.7,9.63,9.63,0,0,1-7.9-3.41c-1.87-2.28-2.8-5.59-2.8-10q0-8.05,3.81-11.36,4.92-4.32,21.73-7.74c-.06-4.27-.72-7.36-2-9.29q-2.66-4-8.19-4a10.88,10.88,0,0,0-2.67.35A12.06,12.06,0,0,0,193,81.38l-2.17,5.79-3.33-.92.1-2.43-.05-2.38-.05-2.17q7.4-5.14,10.62-6.44a17.78,17.78,0,0,1,6.57-1,19.42,19.42,0,0,1,9.27,1.93A11.93,11.93,0,0,1,219.13,79q1.63,3.3,1.64,9.65,0,2.65-.2,9.49-.19,7.05-.19,11.33a54.12,54.12,0,0,0,.34,8.24,2.12,2.12,0,0,0,.94,1.36Q222.41,119.59,226.8,120.06ZM208.55,97.83c-5.64,1.37-9.32,2.87-11,4.47a8.51,8.51,0,0,0-2.56,6.49,7.73,7.73,0,0,0,1.64,5.21,5.22,5.22,0,0,0,4.14,1.9q3.8,0,7.79-4.83Z" transform="translate(-21.33 -9.21)"/><path class="cls-1" d="M230.78,124.5V120l2.88-.21c2.34-.14,3.8-.59,4.39-1.35s.94-3.32,1-7.68q.34-13.35.34-28.92,0-8.28-.07-18.81-.07-6.37-.65-7.79a2.37,2.37,0,0,0-1.07-1.13c-.51-.29-2.8-.6-6.85-.92V48.59c3.89.12,7.69.17,11.43.17q6.51,0,12.53-.17,2.61,6.87,5.42,13.63,2,4.82,17.52,40.82,16.45-37,23-54.45,5.78.28,11,.28,6.1,0,11.79-.28v4.55c-4.21.29-6.6.7-7.15,1.24s-.89,2.21-1.05,5q-.34,6.81-.34,25.89,0,9.63.16,20.32t.66,12.11a2.74,2.74,0,0,0,1,1.25c.41.29,2.67.63,6.75,1v4.55q-7.82-.37-14-.38t-16.8.38V120l2.85-.1c2.24-.11,3.65-.46,4.22-1.06s.93-2.16,1.08-4.7.25-8.54.25-18V63.46q-7.44,16.73-19,43.83-4.74,11.16-7.39,18.19h-3.18q-3.63-9.32-9.72-23.55L245.12,63.46v7.35q0,30.5.24,42,.15,4.65,1.11,5.73c.65.72,3,1.19,7.19,1.4v4.55c-3.27-.25-6.55-.38-9.82-.38Q236.51,124.12,230.78,124.5Z" transform="translate(-21.33 -9.21)"/><path class="cls-1" d="M372.55,120.06v4.44l-3.72-.16q-3-.16-5.9-.16c-3,0-5.91.1-8.63.32l-.48-.59.48-7.42-10.06,8.45a19.69,19.69,0,0,1-4.78.7,9.65,9.65,0,0,1-7.9-3.41c-1.86-2.28-2.8-5.59-2.8-10q0-8.05,3.81-11.36,4.92-4.32,21.73-7.74c-.06-4.27-.71-7.36-2-9.29-1.76-2.64-4.5-4-8.18-4a10.88,10.88,0,0,0-2.67.35,12.31,12.31,0,0,0-2.78,1.11l-2.16,5.79-3.33-.92.09-2.43,0-2.38-.05-2.17q7.38-5.14,10.62-6.44a17.74,17.74,0,0,1,6.57-1,19.38,19.38,0,0,1,9.26,1.93A11.88,11.88,0,0,1,364.88,79c1.09,2.2,1.65,5.42,1.65,9.65q0,2.65-.2,9.49-.19,7.05-.2,11.33a55.59,55.59,0,0,0,.34,8.24,2.14,2.14,0,0,0,.95,1.36Q368.17,119.59,372.55,120.06ZM354.3,97.83c-5.63,1.37-9.31,2.87-11,4.47a8.54,8.54,0,0,0-2.55,6.49,7.72,7.72,0,0,0,1.63,5.21,5.23,5.23,0,0,0,4.14,1.9c2.53,0,5.14-1.61,7.79-4.83Z" transform="translate(-21.33 -9.21)"/><path class="cls-1" d="M374.75,124.5v-4.44q3.67-.44,5.07-1.52,2.13-1.82,7.82-10.05l5.17-7.31q-7.29-12.39-11.64-16.72a7,7,0,0,0-5.07-2.22l-1.35.06V78.84a67.47,67.47,0,0,0,8.4-6,3.81,3.81,0,0,1,2.13-1c1.41,0,3.17.88,5.26,2.65,1.37,1.15,3.28,3.75,5.69,7.79L400.86,90q5.26-7.6,10.53-16.94a25.6,25.6,0,0,0,4,.33,48.91,48.91,0,0,0,5.51-.33v4.41a10.8,10.8,0,0,0-4,1.05,13.82,13.82,0,0,0-3.28,3.3l-9.85,13,5.16,8.66q6.31,10.65,8.06,12.44a7,7,0,0,0,4.59,2v3.41q-5.2,2-11.15,4.92H409a17.35,17.35,0,0,1-3.86-3.78q-2-2.88-9.32-16.18-7.1,10.58-11.2,18.23c-2.51-.22-4.3-.32-5.36-.32A37,37,0,0,0,374.75,124.5Z" transform="translate(-21.33 -9.21)"/><text class="cls-2" transform="translate(0 27.46)">powered by</text></svg>